<mxfile host="app.diagrams.net" modified="2022-12-18T13:21:28.923Z" agent="5.0 (Windows NT 10.0; Win64; x64) AppleWebKit/537.36 (KHTML, like Gecko) Chrome/108.0.0.0 Safari/537.36" etag="50N7pR1ppbu3nbdoRUbT" version="20.7.3" type="github">
  <diagram id="av36-QLzx31YAxyc08HP" name="Seite-1">
    <mxGraphModel dx="1802" dy="779" grid="1" gridSize="10" guides="1" tooltips="1" connect="1" arrows="1" fold="1" page="1" pageScale="1" pageWidth="3300" pageHeight="4681" math="0" shadow="0">
      <root>
        <mxCell id="0" />
        <mxCell id="1" parent="0" />
        <mxCell id="xZuinXM1AuWVyvWUmVTf-15" style="edgeStyle=orthogonalEdgeStyle;rounded=0;orthogonalLoop=1;jettySize=auto;html=1;exitX=1;exitY=0.5;exitDx=0;exitDy=0;entryX=0.5;entryY=1;entryDx=0;entryDy=0;" edge="1" parent="1" source="iEAS6jNyVJdADZBlRwmA-35" target="xZuinXM1AuWVyvWUmVTf-5">
          <mxGeometry relative="1" as="geometry" />
        </mxCell>
        <mxCell id="xZuinXM1AuWVyvWUmVTf-16" style="edgeStyle=orthogonalEdgeStyle;rounded=0;orthogonalLoop=1;jettySize=auto;html=1;exitX=0;exitY=0.5;exitDx=0;exitDy=0;entryX=0.5;entryY=1;entryDx=0;entryDy=0;" edge="1" parent="1" source="iEAS6jNyVJdADZBlRwmA-35" target="iEAS6jNyVJdADZBlRwmA-5">
          <mxGeometry relative="1" as="geometry" />
        </mxCell>
        <mxCell id="iEAS6jNyVJdADZBlRwmA-35" value="" style="rounded=1;whiteSpace=wrap;html=1;fontSize=14;fillColor=none;strokeWidth=1;dashed=1;dashPattern=1 1;" parent="1" vertex="1">
          <mxGeometry x="600" y="360" width="280" height="100" as="geometry" />
        </mxCell>
        <mxCell id="iEAS6jNyVJdADZBlRwmA-5" value="" style="rounded=1;whiteSpace=wrap;html=1;fontSize=14;fillColor=none;strokeWidth=1;dashed=1;dashPattern=1 1;" parent="1" vertex="1">
          <mxGeometry x="320" y="150" width="280" height="180" as="geometry" />
        </mxCell>
        <mxCell id="xZuinXM1AuWVyvWUmVTf-12" style="edgeStyle=orthogonalEdgeStyle;rounded=0;orthogonalLoop=1;jettySize=auto;html=1;exitX=0;exitY=0.5;exitDx=0;exitDy=0;entryX=1;entryY=0.5;entryDx=0;entryDy=0;" edge="1" parent="1" source="iEAS6jNyVJdADZBlRwmA-1" target="iEAS6jNyVJdADZBlRwmA-5">
          <mxGeometry relative="1" as="geometry" />
        </mxCell>
        <mxCell id="xZuinXM1AuWVyvWUmVTf-13" style="edgeStyle=orthogonalEdgeStyle;rounded=0;orthogonalLoop=1;jettySize=auto;html=1;exitX=1;exitY=0.5;exitDx=0;exitDy=0;entryX=0;entryY=0.5;entryDx=0;entryDy=0;" edge="1" parent="1" source="iEAS6jNyVJdADZBlRwmA-1" target="xZuinXM1AuWVyvWUmVTf-5">
          <mxGeometry relative="1" as="geometry" />
        </mxCell>
        <mxCell id="xZuinXM1AuWVyvWUmVTf-14" style="edgeStyle=orthogonalEdgeStyle;rounded=0;orthogonalLoop=1;jettySize=auto;html=1;exitX=0.5;exitY=1;exitDx=0;exitDy=0;entryX=0.5;entryY=0;entryDx=0;entryDy=0;" edge="1" parent="1" source="iEAS6jNyVJdADZBlRwmA-1" target="iEAS6jNyVJdADZBlRwmA-35">
          <mxGeometry relative="1" as="geometry" />
        </mxCell>
        <mxCell id="iEAS6jNyVJdADZBlRwmA-1" value="&lt;font size=&quot;3&quot;&gt;&lt;b&gt;main&lt;/b&gt;&lt;/font&gt;" style="rounded=0;whiteSpace=wrap;html=1;fillColor=none;" parent="1" vertex="1">
          <mxGeometry x="680" y="210" width="120" height="60" as="geometry" />
        </mxCell>
        <mxCell id="xZuinXM1AuWVyvWUmVTf-4" style="edgeStyle=orthogonalEdgeStyle;rounded=0;orthogonalLoop=1;jettySize=auto;html=1;exitX=0.5;exitY=1;exitDx=0;exitDy=0;entryX=0.5;entryY=0;entryDx=0;entryDy=0;" edge="1" parent="1" source="iEAS6jNyVJdADZBlRwmA-2" target="xZuinXM1AuWVyvWUmVTf-3">
          <mxGeometry relative="1" as="geometry" />
        </mxCell>
        <mxCell id="iEAS6jNyVJdADZBlRwmA-2" value="&lt;font style=&quot;&quot;&gt;&lt;b style=&quot;font-size: 16px;&quot;&gt;opc_communication&lt;br&gt;&lt;/b&gt;&lt;span style=&quot;font-size: 10px;&quot;&gt;&lt;b&gt;Class to communicate via OPC UA with the overlaying controller&lt;/b&gt;&lt;/span&gt;&lt;br&gt;&lt;/font&gt;" style="rounded=0;whiteSpace=wrap;html=1;fillColor=none;" parent="1" vertex="1">
          <mxGeometry x="340" y="170" width="240" height="60" as="geometry" />
        </mxCell>
        <mxCell id="iEAS6jNyVJdADZBlRwmA-138" value="&lt;font style=&quot;font-size: 18px;&quot;&gt;&lt;b&gt;Skills&lt;/b&gt;&lt;/font&gt;" style="text;html=1;strokeColor=none;fillColor=none;align=left;verticalAlign=middle;whiteSpace=wrap;rounded=0;strokeWidth=1;fontSize=11;" parent="1" vertex="1">
          <mxGeometry x="610" y="330" width="60" height="30" as="geometry" />
        </mxCell>
        <mxCell id="iEAS6jNyVJdADZBlRwmA-139" value="&lt;font style=&quot;font-size: 18px;&quot;&gt;&lt;b&gt;PLC Communication&lt;/b&gt;&lt;/font&gt;" style="text;html=1;strokeColor=none;fillColor=none;align=left;verticalAlign=middle;whiteSpace=wrap;rounded=0;strokeWidth=1;fontSize=11;" parent="1" vertex="1">
          <mxGeometry x="340" y="120" width="210" height="30" as="geometry" />
        </mxCell>
        <mxCell id="iEAS6jNyVJdADZBlRwmA-141" value="&lt;font style=&quot;font-size: 11px;&quot;&gt;Python Script&lt;/font&gt;" style="rounded=0;whiteSpace=wrap;html=1;strokeWidth=1;fontSize=18;fillColor=none;" parent="1" vertex="1">
          <mxGeometry x="320" y="480" width="80" height="38" as="geometry" />
        </mxCell>
        <mxCell id="iEAS6jNyVJdADZBlRwmA-142" value="&lt;font style=&quot;font-size: 11px;&quot;&gt;YAML file&lt;/font&gt;" style="ellipse;whiteSpace=wrap;html=1;strokeWidth=1;fontSize=12;fillColor=none;" parent="1" vertex="1">
          <mxGeometry x="410" y="480" width="70" height="30" as="geometry" />
        </mxCell>
        <mxCell id="xZuinXM1AuWVyvWUmVTf-3" value="&lt;font size=&quot;3&quot;&gt;&lt;b&gt;opc_config&lt;br&gt;&lt;/b&gt;&lt;/font&gt;&lt;b style=&quot;font-size: 10px;&quot;&gt;Relevant adresses for the OPC UA communication&lt;/b&gt;&lt;font size=&quot;3&quot;&gt;&lt;b&gt;&lt;br&gt;&lt;/b&gt;&lt;/font&gt;" style="ellipse;whiteSpace=wrap;html=1;fontSize=14;fillColor=none;" vertex="1" parent="1">
          <mxGeometry x="370" y="260" width="180" height="60" as="geometry" />
        </mxCell>
        <mxCell id="xZuinXM1AuWVyvWUmVTf-5" value="" style="rounded=1;whiteSpace=wrap;html=1;fontSize=14;fillColor=none;strokeWidth=1;dashed=1;dashPattern=1 1;" vertex="1" parent="1">
          <mxGeometry x="880" y="150" width="280" height="180" as="geometry" />
        </mxCell>
        <mxCell id="xZuinXM1AuWVyvWUmVTf-6" style="edgeStyle=orthogonalEdgeStyle;rounded=0;orthogonalLoop=1;jettySize=auto;html=1;exitX=0.5;exitY=1;exitDx=0;exitDy=0;entryX=0.5;entryY=0;entryDx=0;entryDy=0;" edge="1" parent="1" source="xZuinXM1AuWVyvWUmVTf-7" target="xZuinXM1AuWVyvWUmVTf-9">
          <mxGeometry relative="1" as="geometry" />
        </mxCell>
        <mxCell id="xZuinXM1AuWVyvWUmVTf-7" value="&lt;font style=&quot;&quot;&gt;&lt;b style=&quot;font-size: 16px;&quot;&gt;ur_robot_communication&lt;br&gt;&lt;/b&gt;&lt;span style=&quot;font-size: 10px;&quot;&gt;&lt;b&gt;Class to operate the UR robot using the UR-RTDE interface&lt;/b&gt;&lt;/span&gt;&lt;br&gt;&lt;/font&gt;" style="rounded=0;whiteSpace=wrap;html=1;fillColor=none;" vertex="1" parent="1">
          <mxGeometry x="900" y="170" width="240" height="60" as="geometry" />
        </mxCell>
        <mxCell id="xZuinXM1AuWVyvWUmVTf-8" value="&lt;font style=&quot;font-size: 18px;&quot;&gt;&lt;b&gt;Robot Communication&lt;/b&gt;&lt;/font&gt;" style="text;html=1;strokeColor=none;fillColor=none;align=left;verticalAlign=middle;whiteSpace=wrap;rounded=0;strokeWidth=1;fontSize=11;" vertex="1" parent="1">
          <mxGeometry x="900" y="120" width="210" height="30" as="geometry" />
        </mxCell>
        <mxCell id="xZuinXM1AuWVyvWUmVTf-9" value="&lt;font size=&quot;3&quot;&gt;&lt;b&gt;ur_robot_config&lt;br&gt;&lt;/b&gt;&lt;/font&gt;&lt;b style=&quot;font-size: 10px;&quot;&gt;Relevant positions and settings for the robot operation&lt;/b&gt;&lt;font size=&quot;3&quot;&gt;&lt;b&gt;&lt;br&gt;&lt;/b&gt;&lt;/font&gt;" style="ellipse;whiteSpace=wrap;html=1;fontSize=14;fillColor=none;" vertex="1" parent="1">
          <mxGeometry x="930" y="260" width="180" height="60" as="geometry" />
        </mxCell>
        <mxCell id="xZuinXM1AuWVyvWUmVTf-11" value="&lt;font style=&quot;&quot;&gt;&lt;b style=&quot;&quot;&gt;&lt;span style=&quot;font-size: 16px;&quot;&gt;skills&lt;br&gt;&lt;/span&gt;&lt;span style=&quot;font-size: 10px;&quot;&gt;Class to call and control the different skills of the module&lt;/span&gt;&lt;/b&gt;&lt;br&gt;&lt;/font&gt;" style="rounded=0;whiteSpace=wrap;html=1;fillColor=none;" vertex="1" parent="1">
          <mxGeometry x="620" y="380" width="240" height="60" as="geometry" />
        </mxCell>
      </root>
    </mxGraphModel>
  </diagram>
</mxfile>
